<?xml version="1.0" encoding="iso-8859-1"?>
<!-- Generator: Adobe Illustrator 18.0.0, SVG Export Plug-In . SVG Version: 6.00 Build 0)  -->
<!DOCTYPE svg PUBLIC "-//W3C//DTD SVG 1.1//EN" "http://www.w3.org/Graphics/SVG/1.1/DTD/svg11.dtd">
<svg version="1.1" id="Capa_1" xmlns="http://www.w3.org/2000/svg" xmlns:xlink="http://www.w3.org/1999/xlink" x="0px" y="0px"
	 viewBox="0 0 407.392 407.392" style="enable-background:new 0 0 407.392 407.392;" xml:space="preserve">
<g>
	<path d="M402.016,322.382l-88.896-88.902c12.424-17.657,19.143-38.649,19.143-60.69c0-28.254-10.998-54.816-30.978-74.795
		c-19.979-19.979-46.545-30.982-74.795-30.982c-2.074,0-4.137,0.066-6.19,0.184v30.658c2.05-0.166,4.111-0.27,6.19-0.27
		c20.09,0,38.971,7.823,53.176,22.028c14.207,14.206,22.029,33.091,22.029,53.177c0,20.09-7.822,38.976-22.029,53.177
		c-14.205,14.206-33.086,22.029-53.176,22.029c-20.092,0-38.973-7.823-53.178-22.029c-4.686-4.684-8.66-9.885-11.905-15.463
		c-3.989,2.305-8.61,3.635-13.54,3.635c-9.436,0-17.762-4.836-22.632-12.16c-0.104,0.157-0.22,0.307-0.327,0.462
		c4.904,16.888,14.006,32.365,26.787,45.145c19.979,19.98,46.543,30.982,74.795,30.982c22.035,0,43.033-6.723,60.684-19.147
		l88.906,88.903c3.58,3.583,8.273,5.373,12.973,5.373c4.693,0,9.385-1.79,12.965-5.373
		C409.184,341.159,409.184,329.544,402.016,322.382z"/>
	<path d="M102.602,135.172c-6.662,0-12.07,5.404-12.07,12.071v39.736c0,6.666,5.408,12.071,12.07,12.071
		c6.67,0,12.07-5.405,12.07-12.071v-39.736C114.672,140.577,109.271,135.172,102.602,135.172z"/>
	<path d="M12.07,135.172c-6.66,0-12.07,5.404-12.07,12.071v39.736c0,6.666,5.41,12.071,12.07,12.071
		c6.67,0,12.07-5.405,12.07-12.071v-39.736C24.141,140.577,18.74,135.172,12.07,135.172z"/>
	<path d="M57.336,85.381c-6.662,0-12.072,5.405-12.072,12.071v89.527c0,6.666,5.41,12.071,12.072,12.071
		c6.67,0,12.07-5.405,12.07-12.071V97.452C69.406,90.786,64.006,85.381,57.336,85.381z"/>
	<path d="M193.139,199.05c6.662,0,12.07-5.405,12.07-12.071V65.766c0-6.666-5.408-12.07-12.07-12.07
		c-6.67,0-12.078,5.404-12.078,12.07v121.213C181.061,193.645,186.469,199.05,193.139,199.05z"/>
	<path d="M147.865,199.05c6.67,0,12.072-5.405,12.072-12.071V97.452c0-6.666-5.402-12.071-12.072-12.071
		c-6.66,0-12.07,5.405-12.07,12.071v89.527C135.795,193.645,141.205,199.05,147.865,199.05z"/>
</g>
<g>
</g>
<g>
</g>
<g>
</g>
<g>
</g>
<g>
</g>
<g>
</g>
<g>
</g>
<g>
</g>
<g>
</g>
<g>
</g>
<g>
</g>
<g>
</g>
<g>
</g>
<g>
</g>
<g>
</g>
</svg>
